<?xml version="1.0" encoding="UTF-8" standalone="no"?>
<!-- Created with Inkscape (http://www.inkscape.org/) -->
<svg
   xmlns:dc="http://purl.org/dc/elements/1.1/"
   xmlns:cc="http://web.resource.org/cc/"
   xmlns:rdf="http://www.w3.org/1999/02/22-rdf-syntax-ns#"
   xmlns:svg="http://www.w3.org/2000/svg"
   xmlns="http://www.w3.org/2000/svg"
   xmlns:sodipodi="http://inkscape.sourceforge.net/DTD/sodipodi-0.dtd"
   xmlns:inkscape="http://www.inkscape.org/namespaces/inkscape"
   id="svg5095"
   sodipodi:version="0.32"
   inkscape:version="0.43"
   width="250pt"
   height="380pt"
   sodipodi:docbase="C:\foo\wikipedia\transfer"
   sodipodi:docname="fight.svg"
   version="1.0">
  <metadata
     id="metadata5100">
    <rdf:RDF>
      <cc:Work
         rdf:about="">
        <dc:format>image/svg+xml</dc:format>
        <dc:type
           rdf:resource="http://purl.org/dc/dcmitype/StillImage" />
        <cc:license
           rdf:resource="http://web.resource.org/cc/PublicDomain" />
      </cc:Work>
      <cc:License
         rdf:about="http://web.resource.org/cc/PublicDomain">
        <cc:permits
           rdf:resource="http://web.resource.org/cc/Reproduction" />
        <cc:permits
           rdf:resource="http://web.resource.org/cc/Distribution" />
        <cc:permits
           rdf:resource="http://web.resource.org/cc/DerivativeWorks" />
      </cc:License>
    </rdf:RDF>
  </metadata>
  <defs
     id="defs5098" />
  <sodipodi:namedview
     inkscape:window-height="540"
     inkscape:window-width="812"
     inkscape:pageshadow="2"
     inkscape:pageopacity="0.0"
     borderopacity="1.0"
     bordercolor="#666666"
     pagecolor="#ffffff"
     id="base"
     inkscape:zoom="0.67192594"
     inkscape:cx="358.69639"
     inkscape:cy="245.45596"
     inkscape:window-x="154"
     inkscape:window-y="154"
     inkscape:current-layer="svg5095" />
  <path
     style="fill:#ddd"
     d="M 138.95848,472.03029 C 124.14754,466.71348 91.602099,482.62688 90.085319,460.5228 C 87.783239,418.15364 94.895069,374.829 82.833679,333.39473 C 78.857039,310.8917 57.083989,298.88405 47.941889,278.93149 C 36.212559,261.90288 26.452779,243.73407 16.161599,225.79936 C 2.4374889,209.65521 9.1360989,188.92441 13.520929,170.67837 C 20.481929,150.00314 11.943129,127.68303 19.686019,107.33031 C 36.625719,94.235614 22.831019,73.036856 25.125909,56.070768 C 23.039809,37.143167 40.735059,26.97005 47.349939,11.302995 C 59.850879,5.6646918 85.621479,-1.3586997 91.888509,13.155214 C 80.417259,10.1518 54.796989,6.5618968 59.447279,25.002178 C 47.489769,36.918866 65.198919,54.043436 63.056559,68.771595 C 65.940669,71.723771 84.269059,67.320472 76.127709,78.643614 C 58.084999,87.927593 79.535269,111.88266 92.893659,100.7552 C 98.581249,95.872454 121.33318,84.610223 106.40273,97.982734 C 93.441299,110.578 71.188749,119.85865 64.219479,96.324434 C 58.631209,88.427622 66.528889,75.183676 52.625829,86.527878 C 39.292039,89.603025 39.850399,101.02467 35.002089,109.05273 C 13.888259,106.70375 34.567239,139.44077 47.140129,140.95454 C 61.439439,148.77626 84.117399,151.43655 94.650399,137.1957 C 103.85185,129.25798 112.48591,110.96356 124.18408,110.4876 C 124.7217,129.00034 118.48504,154.59511 142.52086,160.85144 C 166.80033,174.40552 169.69362,139.59769 172.66859,123.7694 C 176.1358,105.10144 172.30176,85.509449 178.29721,67.432271 C 183.94083,58.396274 184.70811,40.234003 196.74957,55.536723 C 184.84091,68.478339 214.2981,86.289737 192.56484,89.919038 C 178.89996,105.62188 182.37764,127.25109 187.47557,145.30643 C 183.63053,163.86765 212.31761,188.86819 224.31187,167.89194 C 228.88261,144.87149 231.7716,121.28513 235.0935,97.954164 C 238.91954,84.108888 231.55241,66.946661 230.14431,57.185108 C 240.2505,62.441616 240.7017,77.41194 255.50699,70.460741 C 263.22534,66.052824 295.16899,79.642815 276.77795,80.649378 C 268.84621,75.264635 245.60275,80.033935 266.6204,81.896598 C 254.80426,92.979334 238.34036,110.16392 237.23262,129.60714 C 231.69508,146.51623 237.24569,165.22151 257.27567,165.24688 C 270.2256,179.11909 280.3726,150.66336 280.45535,138.92643 C 282.65232,123.68775 285.91649,115.81071 290.31116,128.81829 C 300.13034,134.13321 275.95914,154.2331 288.8374,164.46952 C 276.06496,176.82184 259.28365,183.32962 250.68339,199.44889 C 238.86612,213.71278 221.00753,224.47344 204.76509,228.02619 C 209.4702,237.61658 203.01697,243.69796 200.52852,231.19973 C 200.22264,219.33831 182.33008,194.44092 182.81397,219.65964 C 184.58583,228.14309 177.85021,254.85221 175.93016,233.7377 C 182.48593,215.4788 175.23382,196.27706 157.80675,187.82446 C 135.68361,191.53301 114.99301,179.22481 93.110019,182.81703 C 89.999189,177.32467 94.107809,166.77354 84.648259,172.55661 C 89.400799,164.77713 91.840419,145.87865 77.044569,154.99023 C 70.829989,153.40728 44.288199,149.21233 61.111279,159.16643 C 74.804899,154.1085 76.940549,173.12333 62.432269,166.61941 C 44.875519,164.11262 54.170339,182.1782 66.739429,178.40278 C 74.020829,185.06552 33.796499,200.91189 58.873319,209.36558 C 62.961439,216.29693 51.699229,234.87549 69.456169,226.0455 C 79.140279,222.27495 85.301079,192.13898 91.520559,197.55206 C 85.746139,214.96091 71.511119,233.3876 79.966079,252.2549 C 90.833369,266.92699 111.96397,273.11684 114.70656,293.69275 C 120.25786,308.23938 132.679,332.87326 151.46182,319.73546 C 157.6509,302.24034 169.00602,321.11465 161.01927,330.96979 C 157.73672,350.6241 165.59029,369.68223 162.83143,389.62701 C 157.97797,399.55643 176.22283,428.76387 158.98592,424.04547 C 155.27631,417.54651 160.27482,387.69046 151.02154,394.69634 C 150.2519,419.24597 153.91731,443.68718 154.82313,468.16387 C 152.21765,473.02034 143.64734,471.16301 138.95848,472.03029 z M 245.09526,467.81856 C 238.16506,442.37533 230.41524,416.60369 231.22097,389.9101 C 223.80191,371.06775 231.49115,353.48545 240.56727,336.84075 C 241.84698,328.07281 255.58069,307.7134 249.18728,328.28607 C 241.75804,347.78594 231.21212,367.68899 235.45122,389.26036 C 234.83619,416.05722 245.53863,441.14976 249.06421,467.29871 C 249.2121,470.1031 245.88861,469.89861 245.09526,467.81856 z M 183.43431,425.47371 C 177.44556,405.13471 181.25177,383.10374 174.89761,362.71064 C 167.53726,343.55497 195.9388,350.28422 197.81699,359.2871 C 177.95573,369.13985 197.48524,392.65453 187.91382,408.46639 C 188.78663,412.77631 192.08166,430.26058 183.43431,425.47371 z M 193.21605,333.90855 C 176.00897,336.01428 177.1465,321.07134 189.98189,315.81437 C 197.02498,301.23986 204.96646,305.89587 212.51218,316.61276 C 218.38998,324.5548 250.4846,318.68677 229.58928,330.39021 C 217.60529,332.76131 205.48811,334.69254 193.21605,333.90855 z M 252.44213,306.82481 C 251.24633,294.76821 270.92262,290.95201 260.64521,303.35907 C 258.91921,304.62118 254.414,311.00649 252.44213,306.82481 z M 163.95794,293.57286 C 166.5891,281.03507 164.41667,253.26051 179.35018,249.65528 C 187.00316,260.17571 179.17828,274.2261 174.54551,262.28318 C 171.20696,271.96737 171.24428,287.04335 163.95794,293.57286 z M 265.58239,288.81877 C 272.04264,273.30586 278.61955,254.60104 281.51816,236.57168 C 287.28356,220.78524 281.44055,196.63649 292.85595,186.17531 C 294.95834,203.54569 286.39084,222.9347 285.75164,241.41665 C 281.85791,257.00133 282.70526,282.91779 265.58239,288.81877 z M 291.94518,178.95247 C 299.5967,164.01623 301.90447,147.11952 300.27287,131.65623 C 312.04229,143.7319 303.15411,168.299 294.31797,180.3594 L 292.69786,180.18655 L 291.94517,178.95247 L 291.94518,178.95247 z M 292.48803,114.20206 C 288.28245,90.871845 305.23796,120.86077 292.48803,114.20206 z M 287.84325,97.060434 C 277.80402,83.52411 295.572,85.857774 290.01218,98.659134 L 287.84327,97.060434 L 287.84325,97.060434 z M 133.82509,78.104435 C 126.76787,65.471704 114.68388,46.433332 98.596079,59.152378 C 77.891779,51.731476 115.29618,50.576961 105.41509,37.528118 C 109.4067,29.64338 86.621669,11.220828 102.38648,15.599538 C 108.42388,27.881754 113.39194,41.143476 126.78484,27.835289 C 142.96517,27.186229 118.74761,41.71764 126.66468,51.735033 C 127.67337,59.204055 160.04223,77.417701 133.82509,78.104435 z M 112.9814,71.806202 C 101.71994,64.257516 110.9393,53.405868 115.86026,67.979336 C 116.94887,69.576498 115.2829,74.271775 112.9814,71.806202 z M 203.76934,66.465877 C 202.267,56.725667 214.31066,70.300088 203.76934,66.465877 z M 218.53154,65.914089 C 221.5115,56.562793 186.75399,58.654749 206.63519,52.363808 C 217.35688,51.999554 231.62173,59.720952 218.53154,65.914089 z M 142.23864,53.298347 C 141.77506,46.788395 158.66037,36.695209 149.54268,49.413028 C 149.87062,53.839925 145.28213,54.64152 142.23864,53.298347 z M 130.74843,47.800819 C 128.18128,39.320712 138.71875,49.181792 130.74843,47.800819 z M 175.99706,42.569797 C 171.42187,35.930847 147.73121,28.246604 169.56829,29.666699 C 174.46484,28.645181 187.48143,51.964583 175.99706,42.569797 z "
     id="path5106" />
</svg>

